<svg id="Capa_1" enable-background="new 0 0 492.767 492.767" height="512" viewBox="0 0 492.767 492.767" width="512" xmlns="http://www.w3.org/2000/svg"><path d="m392.107 249.962h-291.446l-77.818-44.467c-2.261-1.292-3.123-4.122-1.967-6.455l68.469-138.132c.846-1.707 2.146-3.148 3.758-4.165l84.317-53.212c6.941-4.38 15.727-4.723 22.931-.79 33.897 18.508 64.913 18.751 93.136 1.291 7.376-4.563 16.741-4.398 24.051.268l82.159 52.445c1.591 1.015 2.874 2.446 3.712 4.137l68.482 138.158c1.156 2.333.294 5.163-1.967 6.455z" fill="#fe9738"/><path d="m163.124 12.553-70.021 44.189c-1.611 1.017-2.911 2.458-3.758 4.165l-68.469 138.133c-1.156 2.333-.294 5.163 1.967 6.455l77.818 44.467h62.463z" fill="#fe860a"/><path d="m311.14 20.477c-4.287-2.736-2.882-20.101-7.766-19.696-3.445.286-6.837 1.364-9.887 3.252-28.223 17.46-59.239 17.218-93.136-1.291-3.469-1.894-7.306-2.797-11.127-2.734-4.112.068-5.435 13.799-9.033 16.07l-17.068-3.524-70.02 44.189 8.253 104.509v88.71 238.31c0 2.483 2.012 4.495 4.495 4.495h281.067c2.482 0 4.495-2.012 4.495-4.495v-238.31-88.71l8.285-104.507-69.981-44.671z" fill="#fea95c"/><path d="m321.431 438.59c-97.933 0-177.323-79.39-177.323-177.323v-65.483-88.71l-6.207-78.604-44.798 28.272 8.253 104.509v88.71 237.679c0 2.832 2.296 5.128 5.128 5.128h279.802c2.832 0 5.128-2.296 5.128-5.128v-49.05z" fill="#fe9738"/><path d="m189.224.003c3.82-.06 7.66.85 11.13 2.74 33.89 18.51 64.91 18.75 93.13 1.29 3.05-1.89 6.44-2.97 9.89-3.25l.13 1.45c-1.04 30.65-26.21 55.18-57.12 55.18-15.57 0-29.69-6.23-40-16.33-10.3-10.1-16.8-24.07-17.14-39.56z" fill="#fe860a"/><path d="m317.534 4.303 12.18 7.77c-5.76 40.83-40.94 72.34-83.33 72.34-42.23 0-77.29-31.27-83.26-71.86l14.3-9.02c3.6-2.27 7.69-3.46 11.8-3.53l.02 1.52c.34 15.49 6.84 29.46 17.14 39.56 10.31 10.1 24.43 16.33 40 16.33 30.91 0 56.08-24.53 57.12-55.18l-.13-1.45c4.88-.41 9.87.78 14.16 3.52z" fill="#6cf5c2"/></svg>