<?xml version="1.0" encoding="iso-8859-1"?>
<!-- Generator: Adobe Illustrator 19.0.0, SVG Export Plug-In . SVG Version: 6.00 Build 0)  -->
<svg version="1.1" id="Capa_1" xmlns="http://www.w3.org/2000/svg" xmlns:xlink="http://www.w3.org/1999/xlink" x="0px" y="0px"
	 viewBox="0 0 512 512" style="enable-background:new 0 0 512 512;" xml:space="preserve">
<path style="fill:#886A59;" d="M398.615,203.897c-4.328,0-7.837-3.508-7.837-7.837V8.831c0-4.329,3.509-7.837,7.837-7.837
	c4.328,0,7.837,3.508,7.837,7.837V196.06C406.451,200.389,402.943,203.897,398.615,203.897z"/>
<g>
	<path style="fill:#51586B;" d="M141.898,511.005H99.529c-3.774,0-6.834-3.059-6.834-6.834v-28.757h56.036v28.757
		C148.732,507.946,145.672,511.005,141.898,511.005z"/>
	<path style="fill:#51586B;" d="M412.47,511.005h-42.369c-3.774,0-6.834-3.059-6.834-6.834v-28.757h56.036v28.757
		C419.304,507.946,416.244,511.005,412.47,511.005z"/>
</g>
<polygon style="fill:#006AB9;" points="480.802,399.238 462.214,453.124 451.953,482.871 60.043,482.871 51.234,453.124 
	23.43,359.198 433.061,340.723 "/>
<polygon style="fill:#0464A0;" points="480.802,399.238 462.214,453.124 51.234,453.124 23.43,359.198 433.061,340.723 "/>
<path style="fill:#006AB9;" d="M256,366.37V225.424c0-16.2-13.168-29.368-29.368-29.368H89.412
	c-16.287,0-29.368,13.168-29.368,29.368V366.37v17.472H256V366.37z"/>
<path style="fill:#0464A0;" d="M77.459,225.424c0-16.2,13.081-29.367,29.368-29.367H89.412c-16.287,0-29.368,13.168-29.368,29.367
	V366.37v17.473h17.415V366.37V225.424z"/>
<path style="fill:#006AB9;" d="M451.956,366.37V225.424c0-16.2-13.168-29.368-29.368-29.368h-137.22
	c-16.287,0-29.368,13.168-29.368,29.368V366.37v17.472h195.956L451.956,366.37L451.956,366.37z"/>
<path style="fill:#0464A0;" d="M273.415,225.424c0-16.2,13.081-29.367,29.368-29.367h-17.415c-16.287,0-29.368,13.168-29.368,29.367
	V366.37v17.473h17.415V366.37V225.424z"/>
<g>
	<path style="fill:#025589;" d="M486.532,482.867h-34.577v-184.89c0-7.906,8.15-13.184,15.364-9.95l38.236,17.142
		c4.253,1.907,6.823,6.305,6.398,10.946L497.58,472.787C497.057,478.497,492.267,482.867,486.532,482.867z"/>
	<path style="fill:#025589;" d="M25.467,482.867h34.577v-184.89c0-7.906-8.15-13.184-15.364-9.95L6.444,305.168
		c-4.253,1.907-6.823,6.305-6.398,10.946l14.374,156.672C14.943,478.497,19.733,482.867,25.467,482.867z"/>
</g>
<path style="fill:#008CC9;" d="M450.105,448.565H61.894c-7.447,0-13.483-6.037-13.483-13.483v-37.754
	c0-7.447,6.037-13.483,13.483-13.483h388.212c7.447,0,13.483,6.036,13.483,13.483v37.754
	C463.59,442.528,457.552,448.565,450.105,448.565z"/>
<path style="fill:#0285B2;" d="M77.667,435.081v-37.754c0-7.447,6.037-13.483,13.483-13.483H61.893
	c-7.447,0-13.483,6.036-13.483,13.483v37.754c0,7.447,6.037,13.483,13.483,13.483H91.15
	C83.704,448.564,77.667,442.528,77.667,435.081z"/>
<g>
	<path style="fill:#025589;" d="M313.953,260.424c-3.484,0-6.625-2.384-7.547-5.743c-0.821-2.992,0.225-6.334,2.693-8.245
		c5.32-4.121,13.339,0.152,12.652,6.919C321.349,257.31,317.941,260.424,313.953,260.424z"/>
	<path style="fill:#025589;" d="M394.003,260.424c-3.491,0-6.611-2.391-7.546-5.743c-0.835-2.994,0.239-6.33,2.698-8.245
		c5.311-4.14,13.332,0.17,12.646,6.919C401.398,257.312,397.995,260.424,394.003,260.424z"/>
	<path style="fill:#025589;" d="M313.953,335.154c-7.031,0-10.487-9.049-5.21-13.697c5.29-4.66,13.879-0.204,12.983,6.815
		C321.232,332.136,317.871,335.154,313.953,335.154z"/>
	<path style="fill:#025589;" d="M394.003,335.154c-7.114,0-10.48-9.159-5.116-13.773c5.315-4.572,13.778-0.065,12.889,6.89
		C401.281,332.143,397.925,335.154,394.003,335.154z"/>
	<path style="fill:#025589;" d="M117.993,260.424c-7.192,0-10.534-9.359-4.968-13.891c5.162-4.204,13.123-0.222,12.796,6.438
		C125.617,257.091,122.122,260.424,117.993,260.424z"/>
	<path style="fill:#025589;" d="M198.042,260.424c-3.489,0-6.603-2.392-7.542-5.743c-0.838-2.988,0.25-6.332,2.696-8.245
		c5.308-4.152,13.341,0.173,12.654,6.919C205.447,257.317,202.028,260.424,198.042,260.424z"/>
	<path style="fill:#025589;" d="M117.993,335.154c-6.767,0-10.304-8.404-5.651-13.267c2.301-2.404,6.001-3.079,9.005-1.654
		c2.965,1.407,4.757,4.58,4.445,7.846C125.413,332.033,121.963,335.154,117.993,335.154z"/>
	<path style="fill:#025589;" d="M198.053,335.154c-7.113,0-10.496-9.162-5.122-13.773c2.644-2.268,6.566-2.521,9.469-0.585
		c2.715,1.812,4.052,5.251,3.246,8.42C204.775,332.652,201.604,335.154,198.053,335.154z"/>
</g>
<rect x="308.318" y="26.938" style="fill:#F9C900;" width="180.579" height="125.91"/>
<rect x="308.318" y="26.938" style="fill:#D3AB02;" width="44.659" height="125.91"/>
<g>
</g>
<g>
</g>
<g>
</g>
<g>
</g>
<g>
</g>
<g>
</g>
<g>
</g>
<g>
</g>
<g>
</g>
<g>
</g>
<g>
</g>
<g>
</g>
<g>
</g>
<g>
</g>
<g>
</g>
</svg>
